<?xml version="1.0"?>
<svg xmlns="http://www.w3.org/2000/svg" width="270" height="74" viewBox="0 0 270 74" fill="none">
<g clip-path="url(#clip0_3606_4217)">
<path d="M112.056 57.1134L111.701 58.2554C111.3 58.168 110.914 58.132 110.538 58.1423C109.365 58.1526 108.779 58.7956 108.779 60.0714V60.8585H111.176V62.0778H108.779V70.3963H107.184V62.0778H105.517V61.0643L107.184 60.8585V60.0354C107.184 59.022 107.452 58.2452 107.992 57.6999C108.527 57.1545 109.329 56.8767 110.389 56.8665C111.001 56.8665 111.557 56.9488 112.056 57.1082V57.1134Z" fill="#26569A"/>
<path d="M112.92 62.9986C112.92 62.299 112.874 61.589 112.786 60.8637H114.304C114.366 61.2907 114.412 61.7948 114.433 62.3813H114.469C115.019 61.1929 116.017 60.6013 117.468 60.6013C117.566 60.6013 117.751 60.6219 118.013 60.6579L117.921 62.0263C117.797 62.0006 117.602 61.9903 117.339 61.9903C116.429 61.9903 115.729 62.299 115.24 62.906C114.752 63.5182 114.51 64.3104 114.51 65.2879V70.4014H112.915V62.9986H112.92Z" fill="#26569A"/>
<path d="M128.173 65.6017C128.173 66.5894 127.983 67.464 127.602 68.2356C127.222 69.0022 126.671 69.5989 125.956 70.0259C125.236 70.4529 124.377 70.6638 123.379 70.6638C122.381 70.6638 121.537 70.4477 120.812 70.0156C120.086 69.5835 119.536 68.9867 119.16 68.2254C118.785 67.464 118.6 66.5894 118.6 65.6017C118.6 64.0789 119.016 62.8649 119.855 61.9594C120.693 61.054 121.866 60.6013 123.379 60.6013C124.392 60.6013 125.256 60.8122 125.972 61.2289C126.692 61.6456 127.237 62.2321 127.613 62.9832C127.988 63.7343 128.173 64.6088 128.173 65.6068V65.6017ZM120.246 65.6017C120.246 66.7386 120.503 67.6543 121.023 68.3488C121.542 69.0433 122.324 69.388 123.374 69.388C124.423 69.388 125.231 69.0433 125.756 68.3488C126.28 67.6543 126.543 66.7386 126.543 65.6017C126.543 64.4648 126.28 63.5594 125.756 62.8854C125.231 62.2115 124.439 61.872 123.374 61.872C122.309 61.872 121.527 62.2115 121.012 62.8854C120.498 63.5594 120.246 64.4648 120.246 65.6017V65.6017Z" fill="#26569A"/>
<path d="M130.231 62.9986C130.231 62.299 130.185 61.589 130.097 60.8637H131.615C131.677 61.2032 131.723 61.6508 131.744 62.2115H131.78C132.078 61.7382 132.5 61.3473 133.045 61.0489C133.59 60.7505 134.218 60.6013 134.928 60.6013C135.741 60.6013 136.399 60.7711 136.914 61.1158C137.428 61.4604 137.799 61.9286 138.035 62.5305H138.071C138.395 61.9286 138.838 61.4604 139.404 61.1158C139.964 60.7711 140.638 60.6013 141.425 60.6013C142.213 60.6013 142.871 60.7711 143.391 61.1158C143.915 61.4604 144.301 61.908 144.553 62.4636C144.8 63.0192 144.929 63.6262 144.929 64.2899V70.3963H143.334V64.5111C143.334 63.7754 143.154 63.1581 142.799 62.6539C142.444 62.1549 141.873 61.9029 141.086 61.9029C140.51 61.9029 140.016 62.052 139.604 62.3504C139.193 62.6488 138.879 63.0501 138.668 63.5491C138.457 64.0481 138.349 64.5882 138.349 65.1593V70.386H136.754V64.4648C136.754 63.7394 136.574 63.1324 136.209 62.6385C135.849 62.1446 135.278 61.8977 134.506 61.8977C133.683 61.8977 133.025 62.1858 132.541 62.7671C132.057 63.3484 131.811 64.0635 131.811 64.9123V70.386H130.216V62.9832L130.231 62.9986Z" fill="#26569A"/>
<path d="M175.965 69.1618L176.809 68.1123C177.344 68.5393 177.899 68.8428 178.476 69.028C179.052 69.2132 179.7 69.3109 180.425 69.3109C181.326 69.3109 182.051 69.1 182.607 68.6833C183.162 68.2666 183.44 67.6544 183.44 66.8571C183.44 66.2963 183.311 65.8385 183.049 65.4886C182.787 65.1388 182.421 64.8559 181.963 64.6449C181.5 64.434 180.888 64.2282 180.127 64.0276C178.892 63.7035 177.966 63.2611 177.354 62.7055C176.742 62.1499 176.433 61.3731 176.433 60.3699C176.433 59.2587 176.85 58.3893 177.678 57.7669C178.506 57.1444 179.566 56.8306 180.852 56.8306C181.665 56.8306 182.396 56.9386 183.054 57.1495C183.707 57.3604 184.32 57.6743 184.88 58.0858L184.129 59.1713C183.605 58.8317 183.085 58.5848 182.565 58.4202C182.046 58.2556 181.475 58.1784 180.852 58.1784C180.014 58.1784 179.34 58.3585 178.831 58.7134C178.316 59.0684 178.064 59.5828 178.064 60.2568C178.064 60.9307 178.301 61.44 178.769 61.7846C179.237 62.1293 180.003 62.438 181.063 62.7106C182.401 63.0605 183.409 63.5337 184.098 64.1356C184.783 64.7375 185.127 65.6224 185.127 66.7953C185.127 67.6441 184.916 68.3644 184.5 68.9508C184.083 69.5373 183.517 69.9797 182.802 70.2729C182.092 70.5662 181.29 70.7154 180.405 70.7154C178.681 70.7154 177.2 70.1958 175.965 69.1618V69.1618Z" fill="#26569A"/>
<path d="M186.552 67.7932C186.552 66.5586 187 65.6995 187.89 65.2159C188.785 64.7375 190.128 64.4957 191.928 64.4957C192.365 64.4957 192.695 64.5008 192.921 64.5162V63.9709C192.921 63.261 192.726 62.726 192.34 62.3762C191.954 62.0263 191.357 61.8514 190.56 61.8514C189.546 61.8514 188.595 62.1189 187.694 62.6591L187.134 61.5891C188.209 60.9254 189.382 60.5962 190.658 60.5962C191.995 60.5962 192.973 60.91 193.59 61.5325C194.207 62.155 194.516 63.1067 194.516 64.3825V68.282C194.516 68.9713 194.557 69.6761 194.644 70.4015H193.183C193.096 69.851 193.055 69.4189 193.055 69.1102H192.998C192.648 69.6247 192.206 70.0105 191.676 70.2729C191.146 70.5352 190.462 70.6638 189.623 70.6638C188.697 70.6638 187.957 70.4169 187.391 69.923C186.83 69.4292 186.547 68.7192 186.547 67.7984L186.552 67.7932ZM192.921 66.8775V65.6429L192.077 65.6223C191.141 65.6223 190.395 65.684 189.84 65.8075C189.284 65.931 188.872 66.147 188.605 66.4454C188.337 66.7438 188.204 67.1656 188.204 67.7006C188.204 68.2357 188.368 68.6729 188.692 68.9662C189.016 69.2594 189.469 69.4086 190.04 69.4086C190.611 69.4086 191.157 69.28 191.594 69.0228C192.031 68.7655 192.36 68.4466 192.587 68.0556C192.813 67.6698 192.926 67.2737 192.926 66.8775H192.921Z" fill="#26569A"/>
<path d="M199.11 57.134V70.4015H197.515V57.134H199.11Z" fill="#26569A"/>
<path d="M210.237 66.2036H203.153C203.215 67.1759 203.508 67.9527 204.033 68.5289C204.558 69.1051 205.309 69.3932 206.281 69.3932C206.857 69.3932 207.372 69.316 207.83 69.1565C208.288 69.0022 208.745 68.7656 209.208 68.4517L209.918 69.4806C209.383 69.8665 208.807 70.1597 208.205 70.3603C207.598 70.561 206.929 70.6587 206.189 70.6587C204.728 70.6587 203.586 70.1957 202.768 69.2697C201.95 68.3437 201.538 67.1142 201.538 65.576C201.538 64.5883 201.713 63.7189 202.063 62.9729C202.413 62.2218 202.922 61.6405 203.591 61.2187C204.259 60.802 205.062 60.5911 205.998 60.5911C207.387 60.5911 208.442 61.0386 209.172 61.9389C209.903 62.8392 210.268 64.0327 210.268 65.5194C210.268 65.8178 210.258 66.0442 210.232 66.1933L210.237 66.2036ZM208.72 64.969C208.694 64.0173 208.452 63.2559 207.989 62.6848C207.526 62.1087 206.857 61.8206 205.983 61.8206C205.108 61.8206 204.409 62.119 203.92 62.7106C203.431 63.3022 203.169 64.0584 203.133 64.969H208.72V64.969Z" fill="#26569A"/>
<path d="M218.463 61.6096L217.753 62.6025C217.018 62.0881 216.215 61.836 215.356 61.836C214.754 61.836 214.286 61.9492 213.951 62.1807C213.612 62.4122 213.447 62.7414 213.447 63.1632C213.447 63.477 213.514 63.7343 213.653 63.9298C213.792 64.1304 214.024 64.3002 214.348 64.4339C214.672 64.5728 215.145 64.7169 215.773 64.866C216.745 65.1027 217.47 65.4525 217.938 65.9052C218.407 66.3631 218.643 66.9598 218.643 67.6955C218.643 68.6318 218.293 69.3623 217.594 69.8767C216.894 70.3963 216.03 70.6535 215.006 70.6535C213.633 70.6535 212.48 70.2831 211.559 69.5475L212.29 68.5546C212.712 68.8427 213.134 69.0536 213.545 69.1925C213.957 69.3314 214.425 69.3983 214.949 69.3983C215.587 69.3983 216.092 69.2594 216.457 68.9867C216.827 68.7141 217.007 68.318 217.007 67.8087C217.007 67.4691 216.94 67.2016 216.801 66.9958C216.663 66.7901 216.436 66.6203 216.117 66.4814C215.798 66.3425 215.32 66.1933 214.682 66.0338C213.694 65.7818 212.979 65.4474 212.526 65.0204C212.079 64.5934 211.853 64.0069 211.853 63.261C211.853 62.4482 212.166 61.8 212.799 61.3215C213.432 60.8431 214.265 60.6013 215.299 60.6013C216.524 60.6013 217.578 60.9408 218.468 61.6148L218.463 61.6096Z" fill="#26569A"/>
<path d="M226.447 57.1134L226.092 58.2554C225.691 58.168 225.305 58.132 224.93 58.1423C223.757 58.1526 223.17 58.7956 223.17 60.0714V60.8585H225.568V62.0778H223.17V70.3963H221.575V62.0778H219.909V61.0643L221.575 60.8585V60.0354C221.575 59.022 221.843 58.2452 222.383 57.6999C222.918 57.1545 223.721 56.8767 224.78 56.8665C225.393 56.8665 225.948 56.9488 226.447 57.1082V57.1134Z" fill="#26569A"/>
<path d="M236.211 65.6017C236.211 66.5894 236.021 67.464 235.64 68.2356C235.26 69.0022 234.709 69.5989 233.994 70.0259C233.274 70.4529 232.415 70.6638 231.417 70.6638C230.419 70.6638 229.575 70.4477 228.85 70.0156C228.124 69.5835 227.574 68.9867 227.198 68.2254C226.823 67.464 226.638 66.5894 226.638 65.6017C226.638 64.0789 227.054 62.8649 227.893 61.9594C228.731 61.054 229.904 60.6013 231.417 60.6013C232.43 60.6013 233.295 60.8122 234.01 61.2289C234.73 61.6456 235.275 62.2321 235.651 62.9832C236.026 63.7343 236.211 64.6088 236.211 65.6068V65.6017ZM228.284 65.6017C228.284 66.7386 228.541 67.6543 229.061 68.3488C229.58 69.0433 230.362 69.388 231.412 69.388C232.461 69.388 233.269 69.0433 233.794 68.3488C234.318 67.6543 234.581 66.7386 234.581 65.6017C234.581 64.4648 234.318 63.5594 233.794 62.8854C233.269 62.2115 232.477 61.872 231.412 61.872C230.347 61.872 229.565 62.2115 229.05 62.8854C228.536 63.5594 228.284 64.4648 228.284 65.6017V65.6017Z" fill="#26569A"/>
<path d="M238.269 62.9986C238.269 62.299 238.223 61.589 238.135 60.8637H239.653C239.715 61.2907 239.761 61.7948 239.782 62.3813H239.818C240.368 61.1929 241.366 60.6013 242.817 60.6013C242.915 60.6013 243.1 60.6219 243.362 60.6579L243.27 62.0263C243.146 62.0006 242.951 61.9903 242.688 61.9903C241.778 61.9903 241.078 62.299 240.589 62.906C240.101 63.5182 239.859 64.3104 239.859 65.2879V70.4014H238.264V62.9986H238.269Z" fill="#26569A"/>
<path d="M248.671 60.6013C249.273 60.6013 249.844 60.6939 250.384 60.874C250.93 61.054 251.413 61.3061 251.835 61.6353L251.197 62.7414C250.472 62.2064 249.628 61.9337 248.666 61.9337C247.642 61.9337 246.866 62.2681 246.341 62.9369C245.816 63.6057 245.554 64.5008 245.554 65.6274C245.554 66.754 245.816 67.6183 246.341 68.2974C246.866 68.9764 247.632 69.3211 248.646 69.3211C249.51 69.3211 250.364 69.0536 251.213 68.5134L251.794 69.6401C250.842 70.3294 249.757 70.669 248.532 70.669C247.457 70.669 246.578 70.4272 245.888 69.9487C245.199 69.4703 244.705 68.8478 244.396 68.0865C244.088 67.3251 243.938 66.5071 243.938 65.6326C243.938 64.1098 244.355 62.8906 245.194 61.98C246.032 61.0695 247.185 60.6116 248.661 60.6116L248.671 60.6013Z" fill="#26569A"/>
<path d="M261.656 66.2036H254.572C254.634 67.1759 254.927 67.9527 255.452 68.5289C255.976 69.1051 256.727 69.3932 257.7 69.3932C258.276 69.3932 258.79 69.316 259.248 69.1565C259.706 69.0022 260.164 68.7656 260.627 68.4517L261.337 69.4806C260.802 69.8665 260.226 70.1597 259.624 70.3603C259.017 70.561 258.348 70.6587 257.607 70.6587C256.146 70.6587 255.004 70.1957 254.186 69.2697C253.368 68.3437 252.957 67.1142 252.957 65.576C252.957 64.5883 253.131 63.7189 253.481 62.9729C253.831 62.2218 254.34 61.6405 255.009 61.2187C255.678 60.802 256.48 60.5911 257.417 60.5911C258.806 60.5911 259.86 61.0386 260.591 61.9389C261.321 62.8392 261.687 64.0327 261.687 65.5194C261.687 65.8178 261.676 66.0442 261.651 66.1933L261.656 66.2036ZM260.138 64.969C260.112 64.0173 259.871 63.2559 259.408 62.6848C258.945 62.1087 258.276 61.8206 257.401 61.8206C256.527 61.8206 255.827 62.119 255.338 62.7106C254.85 63.3022 254.587 64.0584 254.551 64.969H260.138V64.969Z" fill="#26569A"/>
<path d="M160.558 58.487C160.938 58.0806 161.396 57.7617 161.905 57.5508C162.41 57.3296 162.955 57.2112 163.505 57.2112C164.241 57.2112 164.961 57.417 165.589 57.7977C166.222 58.1784 166.741 58.7237 167.091 59.3719C167.739 59.0838 168.434 58.9346 169.144 58.9295C170.491 58.9295 171.783 59.4696 172.734 60.4368C173.686 61.3988 174.221 62.7106 174.221 64.0739C174.221 65.4372 173.686 66.7438 172.734 67.711C171.783 68.673 170.491 69.2183 169.144 69.2183C168.814 69.2183 168.48 69.1823 168.161 69.1051C167.708 69.9334 166.952 70.5559 166.057 70.8388C165.157 71.1166 164.184 71.0446 163.33 70.6382C163.006 71.4253 162.446 72.094 161.73 72.5416C161.021 73.0098 160.187 73.2464 159.343 73.2207C158.505 73.2104 157.687 72.9429 157.008 72.4439C156.324 71.95 155.804 71.2555 155.516 70.4581C155.248 70.5147 154.976 70.5456 154.703 70.5404C154.019 70.5301 153.345 70.3347 152.753 69.9848C152.162 69.6299 151.673 69.1257 151.334 68.5238C150.994 67.9219 150.814 67.2377 150.809 66.5432C150.809 65.8487 150.984 65.1645 151.323 64.5626C151.668 63.9607 152.162 63.4617 152.759 63.117C152.321 62.0933 152.27 60.9409 152.62 59.876C152.97 58.8214 153.685 57.9263 154.631 57.3604C155.588 56.7894 156.715 56.599 157.8 56.8203C158.896 57.0106 159.878 57.6074 160.552 58.4973L160.558 58.487Z" fill="#0D9DDA"/>
<path d="M21.339 13.0772H14.1419V5.88525H11.8938V13.0772H4.7019V15.3253H11.8938V22.5223H14.1419V15.3253H21.339V13.0772Z" fill="#FBAF3C"/>
<path d="M50.683 13.0772H43.4911V5.88525H41.2429V13.0772H34.0459V15.3253H41.2429V22.5223H43.4911V15.3253H50.683V13.0772Z" fill="#63A5B9"/>
<path d="M11.0811 27.1265H6.32764V22.373H4.75345V27.1265H0V28.6955H4.75345V33.449H6.32764V28.6955H11.0811V27.1265Z" fill="#63A5B9"/>
<path d="M56.0587 26.89H51.2075V22.0337H49.16V26.89H44.3037V28.9324H49.16V33.7887H51.2075V28.9324H56.0587V26.89Z" fill="#576EB2"/>
<path d="M50.6881 40.2602H43.5219V33.0991H41.2069V40.2602H34.0459V42.5752H41.2069V49.7362H43.5219V42.5752H50.6881V40.2602Z" fill="#26569A"/>
<path d="M21.339 40.2602H14.1779V33.0991H11.8629V40.2602H4.7019V42.5752H11.8629V49.7362H14.1779V42.5752H21.339V40.2602Z" fill="#CD2033"/>
<path d="M33.2329 4.75345H28.4795V0H26.9053V4.75345H22.1519V6.32764H26.9053V11.0811H28.4795V6.32764H33.2329V4.75345Z" fill="#63A5B9"/>
<path d="M33.5672 49.16H28.7161V44.3088H26.6686V49.16H21.8174V51.2075H26.6686V56.0587H28.7161V51.2075H33.5672V49.16Z" fill="#576EB2"/>
<path d="M37.688 26.3754H29.2254V17.918H26.1594V26.3754H17.6968V29.4466H26.1594V37.9041H29.2254V29.4466H37.688V26.3754Z" fill="#F58220"/>
<path d="M146.698 22.8207C145.726 22.8207 144.214 23.0214 142.506 23.6901V14.7183H138.879L138.982 39.1851C141.148 39.9157 143.211 40.3221 145.309 40.3221C151.37 40.3221 154.806 37.0914 154.806 31.556C154.806 26.0206 151.534 22.8207 146.693 22.8207H146.698ZM145.675 36.9885C144.666 36.9885 143.622 36.7827 142.506 36.3763V27.034C143.427 26.6122 144.682 26.1543 146.004 26.1543C149.049 26.1543 150.999 28.1967 150.999 31.592C150.999 34.9873 149.055 36.9885 145.675 36.9885V36.9885Z" fill="#26569A"/>
<path d="M172.277 11.2817H168.691V43.3932H172.277V11.2817Z" fill="#26569A"/>
<path d="M195.2 22.867C190.292 22.867 187.077 26.396 186.907 31.3656C186.753 35.9698 189.443 39.8539 194.968 40.3889C197.782 40.6615 200.015 40.1985 202.155 39.1594V35.7383C200.53 36.7569 197.53 37.2405 195.401 37.0759C192.844 36.8804 190.976 35.4039 190.683 32.2915H203.076C203.333 26.6738 200.35 22.8618 195.2 22.8618V22.867ZM190.904 29.6576C191.614 27.4146 193.662 26.0565 195.771 26.1954C197.87 26.3292 199.048 27.4661 199.141 29.6576H190.904Z" fill="#26569A"/>
<path d="M250.678 33.8093V23.186H247.051V34.2568C247.051 37.9557 249.921 40.2141 254.484 40.2141C259.048 40.2141 261.918 37.9557 261.918 34.2568V23.186H258.291V33.8093C258.291 36.4072 256.758 37.5647 254.484 37.5647C252.211 37.5647 250.672 36.4072 250.672 33.8093H250.678Z" fill="#26569A"/>
<path d="M117.818 22.7434V23.9678C116.609 23.1807 115.261 22.8206 113.625 22.8206C108.789 22.8206 105.517 26.221 105.517 31.5558C105.517 36.8906 108.954 40.3425 115.014 40.3219C117.314 40.3168 119.819 39.8435 121.342 39.185L121.444 22.7434H117.823H117.818ZM117.751 36.5922C116.475 36.9163 115.472 36.978 114.649 36.9883C111.264 37.0346 109.324 35.0489 109.324 31.5918C109.324 28.1348 111.274 26.1542 114.319 26.1542C115.539 26.1542 116.66 26.5297 117.818 27.3271L117.751 36.5973V36.5922Z" fill="#26569A"/>
<path d="M229.375 22.7434V23.9678C228.166 23.1807 226.813 22.8206 225.182 22.8206C220.341 22.8206 217.074 26.221 217.074 31.5558C217.074 36.8906 220.511 40.3425 226.571 40.3219C228.87 40.3168 231.376 39.8435 232.898 39.185L233.001 22.7434H229.38H229.375ZM229.308 36.5922C228.032 36.9163 226.921 36.9883 226.206 36.9883C222.821 36.9935 220.881 35.0489 220.881 31.5918C220.881 28.1348 222.831 26.1542 225.876 26.1542C227.096 26.1542 228.217 26.5297 229.375 27.3271L229.308 36.5973V36.5922Z" fill="#26569A"/>
<path d="M79.1418 26.0617H69.4446V29.4056H79.1418V40.4506H82.7275V29.4056H92.4196V26.0617H82.7275V15.8757H79.1418V26.0617Z" fill="#26569A"/>
<path d="M267.891 23.042H267.881C266.702 23.042 265.751 23.9989 265.751 25.1924C265.751 26.3859 266.708 27.353 267.881 27.353C269.053 27.353 270 26.4064 270 25.1924C270 23.9783 269.064 23.042 267.891 23.042ZM267.891 27.0186C266.934 27.0186 266.162 26.2161 266.162 25.1924C266.162 24.1686 266.939 23.3764 267.881 23.3764H267.891C268.848 23.3764 269.609 24.1892 269.609 25.2027C269.609 26.2161 268.843 27.0289 267.891 27.0186Z" fill="#26569A"/>
<path d="M268.673 25.8508C268.626 25.4958 268.482 25.3055 268.271 25.2695V25.2489C268.529 25.1717 268.739 24.9814 268.739 24.6676C268.739 24.4412 268.662 24.2766 268.518 24.1737C268.374 24.0708 268.138 23.9937 267.772 23.9937C267.484 23.9937 267.294 24.0245 267.093 24.0502V26.4475H267.474V25.4135H267.741C268.05 25.4135 268.199 25.5267 268.261 25.8354C268.307 26.1492 268.364 26.3704 268.426 26.4475H268.827C268.791 26.3704 268.734 26.2263 268.673 25.8559V25.8508ZM267.757 25.1151H267.479V24.3023C267.546 24.292 267.633 24.2817 267.757 24.2817C268.189 24.2817 268.338 24.4927 268.338 24.7036C268.338 25.002 268.071 25.1151 267.757 25.1151Z" fill="#26569A"/>
</g>
<defs>
<clipPath id="clip0_3606_4217">
<rect width="270" height="73.2103" fill="white"/>
</clipPath>
</defs>
</svg>
